<svg xmlns="http://www.w3.org/2000/svg" xmlns:xlink="http://www.w3.org/1999/xlink" viewBox="0 0 140.5 38.6"><defs><style>.cls-1{fill:none;}.cls-2{fill:#807f83;}.cls-3{clip-path:url(#clip-path);}.cls-4{fill:#d11242;}</style><clipPath id="clip-path"><rect class="cls-1" width="140.5" height="38.6"/></clipPath></defs><g><g><rect class="cls-2" y="0.71" width="2" height="22.91"/><polygon class="cls-2" points="23.08 0.71 23.38 0.71 38.75 18.41 38.75 0.71 40.92 0.71 40.92 23.57 40.34 23.57 25.31 6.41 25.31 23.49 23.06 23.49 23.08 0.71"/><g class="cls-3"><path class="cls-4" d="M77.87,12.2a9.8,9.8,0,1,1-9.8-9.8,9.8,9.8,0,0,1,9.8,9.8M68.07,0a12.2,12.2,0,1,0,12.2,12.2A12.2,12.2,0,0,0,68.07,0"/></g><polygon class="cls-2" points="99.22 0.74 99.22 9.3 108.31 0.72 111.37 0.74 100.59 11.08 112.22 23.5 109.09 23.5 99.28 13.11 99.28 23.55 96.94 23.55 96.95 0.71 99.22 0.74"/><g class="cls-3"><path class="cls-2" d="M138.09,17.92c-.13-2.83-6.72-7-7.64-8a6.36,6.36,0,0,1-1.83-4.5A5.36,5.36,0,0,1,134.16.06c3.44,0,5.65,3.7,5.65,3.7l-1.48,1.48s-1.72-2.78-4.5-2.78c-2.34,0-3.16,2.54-2.8,3.77s1,2.12,5,5,4.4,5.41,4.45,7a6.38,6.38,0,0,1-6.39,6.05c-4.85,0-7-4.86-7-4.86L129,18.25s2.28,3.91,4.83,3.83c1.83-.06,4.39-1.44,4.27-4.16"/></g><rect class="cls-2" y="27.58" width="140.5" height="0.58"/><g class="cls-3"><path class="cls-2" d="M43.9,32.42a2.78,2.78,0,0,0,0,5.56,2.57,2.57,0,0,0,2.19-1.13,5.25,5.25,0,0,1,.54.37A3.17,3.17,0,0,1,44,38.6a3.42,3.42,0,0,1-2.35-5.86,3.18,3.18,0,0,1,2.31-.95,3.25,3.25,0,0,1,2.77,1.45l-.55.38a2.59,2.59,0,0,0-2.23-1.19"/></g><path class="cls-2" d="M53.43,33.54l-1,2.17h2Zm-3.07,5,2.93-6.36h.33l2.9,6.36h-.73L54.7,36.31H52.15l-1.07,2.19Z"/><path class="cls-2" d="M86.21,33.54l-1,2.17h2Zm-3.07,5,2.93-6.36h.33l2.9,6.36h-.73l-1.1-2.18H84.94l-1.07,2.19Z"/><g class="cls-3"><path class="cls-2" d="M61.81,34.79h.94c1.13,0,1.71-.3,1.71-1,0-.92-.72-1.06-1.76-1.06h-.89v2.1Zm.74-2.73a4,4,0,0,1,1.74.26,1.53,1.53,0,0,1,.81,1.38,1.5,1.5,0,0,1-.64,1.39,3.38,3.38,0,0,1-1.8.33h-.85V38.5h-.64V32.06Z"/></g><rect class="cls-2" x="69.89" y="32.14" width="0.7" height="6.37"/><polygon class="cls-2" points="77.41 38.47 77.41 32.59 75.9 32.59 75.9 32.05 79.44 32.05 79.44 32.59 78.02 32.59 78.02 38.47 77.41 38.47"/><polygon class="cls-2" points="93.93 38.45 93.93 32.12 94.63 32.12 94.63 37.73 97.03 37.73 97.03 38.45 93.93 38.45"/></g></g></svg>
